<svg width="24" height="24" xmlns="http://www.w3.org/2000/svg">
 <g>
  <title>Layer 1</title>
  <g fill="none" stroke="white" stroke-linecap="round" stroke-linejoin="round" stroke-width="1.5" id="svg_1">
   <path d="m3,5.231l3.15,-2.231m14.85,2.231l-3.15,-2.231m2.15,10a8,8 0 1 1 -16,0a8,8 0 0 1 16,0" id="svg_2"/>
  </g>
  <g id="svg_3">
   <path d="m13.98183,11.2638c1.00866,0.82293 1.51267,1.23378 1.51267,1.93727s-0.50402,1.11496 -1.51267,1.93727a14.38259,14.38259 0 0 1 -0.80793,0.61908c-0.22262,0.15633 -0.47463,0.31767 -0.73539,0.4765c-1.00616,0.61157 -1.50892,0.91736 -1.95978,0.57906c-0.45149,-0.33893 -0.49213,-1.04743 -0.57405,-2.46568a20.6359,20.6359 0 0 1 -0.03815,-1.14623c0,-0.35206 0.01438,-0.74539 0.03752,-1.14623c0.08254,-1.41762 0.12319,-2.12675 0.57468,-2.46568c0.45086,-0.3383 0.95363,-0.03252 1.95978,0.57906c0.26076,0.15883 0.51277,0.32017 0.73539,0.4765a14.38259,14.38259 0 0 1 0.80793,0.61908" stroke-width="1.5" stroke-linejoin="round" stroke-linecap="round" stroke="white" fill="none" id="svg_4"/>
  </g>
 </g>

</svg>
